# AST/ASF file generated using VICON BodyLanguage
# -----------------------------------------------
:version 1.10
:name VICON
:units
  mass 1.0
  length 0.45
  angle deg
:documentation
   .ast/.asf automatically generated from VICON data using
   VICON BodyBuilder and BodyLanguage model FoxedUp or BRILLIANT.MOD
:root
   order TX TY TZ RX RY RZ
   axis XYZ
   position 0 0 0  
   orientation 0 0 0 
:bonedata
  begin
     id 1 
     name lhipjoint
     direction 0.707368 -0.647095 0.284426 
     length 2.60678 
     axis 0 0 0  XYZ
  end
  begin
     id 2 
     name lfemur
     direction 0.34202 -0.939693 0  
     length 6.63812  
     axis 0 0 20  XYZ
    dof rx ry rz
    limits (-160.0 20.0)
           (-70.0 70.0)
           (-60.0 70.0)
  end
  begin
     id 3 
     name ltibia
     direction 0.34202 -0.939693 0   
     length 7.51178   
     axis 0 0 20   XYZ
    dof rx
    limits (-10.0 170.0)
  end
  begin
     id 4 
     name lfoot
     direction 0.121251 -0.333133 0.935051   
     length 1.83716   
     axis -90 7.62852e-016 20   XYZ
    dof rx rz
    limits (-45.0 90.0)
           (-70.0 20.0)
  end
  begin
     id 5 
     name ltoes
     direction 1.53611e-011 -4.21962e-011 1   
     length 0.916133   
     axis -90 7.62852e-016 20   XYZ
    dof rx
    limits (-90.0 20.0)
  end
  begin
     id 6 
     name rhipjoint
     direction -0.692419 -0.660507 0.290321   
     length 2.55385  
     axis 0 0 0  XYZ 
  end
  begin
     id 7 
     name rfemur
     direction -0.34202 -0.939693 0   
     length 7.29079   
     axis 0 0 -20   XYZ
    dof rx ry rz
    limits (-160.0 20.0)
           (-70.0 70.0)
           (-70.0 60.0)
  end
  begin
     id 8 
     name rtibia
     direction -0.34202 -0.939693 0   
     length 7.47143   
     axis 0 0 -20   XYZ
    dof rx
    limits (-10.0 170.0)
 end
 begin
     id 9 
     name rfoot
     direction -0.119907 -0.329441 0.936532   
     length 1.79439  
     axis -90 -7.62852e-016 -20   XYZ
    dof rx rz
    limits (-45.0 90.0)
           (-20.0 70.0)
  end
  begin
     id 10 
     name rtoes
     direction -1.53571e-011 -4.21961e-011 1   
     length 0.896039   
     axis -90 -7.62852e-016 -20   XYZ
    dof rx
    limits (-90.0 20.0)
  end
  begin
     id 11 
     name lowerback
     direction 0.0367721 0.992912 -0.113016   
     length 1.73542   
     axis 0 0 0   XYZ
    dof rx ry rz
    limits (-20.0 45.0)
           (-30.0 30.0)
           (-30.0 30.0)
  end
  begin
     id 12 
     name upperback
     direction -0.000314626 0.990678 0.136227   
     length 1.7514   
     axis 0 0 0   XYZ
    dof rx ry rz
    limits (-20.0 45.0)
           (-30.0 30.0)
           (-30.0 30.0)
  end
  begin
     id 13 
     name thorax
     direction -0.0226159 0.981151 0.191917   
     length 1.71471   
     axis 0 0 0   XYZ
    dof rx ry rz
    limits (-20.0 45.0)
           (-30.0 30.0)
           (-30.0 30.0)
  end
  begin
     id 14 
     name lowerneck
     direction 0.0219333 0.998071 0.0580739   
     length 1.65882   
     axis 0 0 0   XYZ
    dof rx ry rz
    limits (-20.0 45.0)
           (-30.0 30.0)
           (-30.0 30.0)
  end
  begin
     id 15 
     name upperneck
     direction 0.0384529 0.980058 -0.194957   
     length 1.6612   
     axis 0 0 0   XYZ
    dof rx ry rz
    limits (-20.0 45.0)
           (-30.0 30.0)
           (-30.0 30.0)
  end
  begin
     id 16
     name head
     direction 0.00592123 0.997421 -0.0715234  
     length 1.68077  
     axis 0 0 0   XYZ
    dof rx ry rz
    limits (-20.0 45.0)
           (-30.0 30.0)
           (-30.0 30.0)
  end
  begin
     id 17 
     name lclavicle
     direction 0.904803 0.417826 0.0821728  
     length 3.42227  
     axis 0 0 0   XYZ
    dof ry rz
    limits (-20.0 10.0)
           (0.0 20.0)
  end
  begin
     id 18 
     name lhumerus
     direction 1 -4.48965e-011 -2.68786e-027   
     length 5.11878   
     axis -180 -30 -90   XYZ
    dof rx ry rz
    limits (-60.0 90.0)
           (-90.0 90.0)
           (-90.0 90.0)
  end
  begin
     id 19
     name lradius
     direction 1 -4.48965e-011 2.61168e-028   
     length 3.59971   
     axis -180 -30 -90   XYZ
    dof rx
    limits (-10.0 170.0)
  end
  begin
     id 20
     name lwrist
     direction 1 -4.48965e-011 1.58672e-027   
     length 1.79985   
     axis -1.65735e-015 90 90   XYZ
    dof ry
    limits (-180.0 0.0)
 end
  begin
     id 21 
     name lhand
     direction 1 -4.48942e-011 3.17344e-027   
     length 0.62877   
     axis -2.02492e-015 90 90   XYZ
    dof rx rz
    limits (-90.0 90.0)
           (-45.0 45.0)
  end
  begin
     id 22 
     name lfingers
     direction 1 -4.49011e-011 6.34687e-027   
     length 0.506931   
     axis -4.04985e-015 90 90   XYZ
    dof rx
    limits (0.0 90.0)
  end
  begin
     id 23
     name lthumb
     direction 0.707107 -6.34982e-011 0.707107   
     length 0.727854   
     axis -90 45 2.85299e-015   XYZ
    dof rx rz
    limits (-45.0 45.0)
           (-45.0 45.0)
  end
  begin
     id 24 
     name rclavicle
     direction -0.945647 0.32488 0.0143075   
     length 3.52737  
     axis 0 0 0   XYZ 
    dof ry rz
    limits (-10.0 20.0)
           (-20.0 0.0)
  end
  begin
     id 25 
     name rhumerus
     direction -1 -4.48962e-011 1.92182e-027  
     length 5.4902   
     axis -180 30 90   XYZ
    dof rx ry rz
    limits (-90.0 60.0)
           (-90.0 90.0)
           (-90.0 90.0)
  end
  begin
     id 26 
     name rradius
     direction -1 -4.48967e-011 -5.97193e-028   
     length 3.20659   
     axis -180 30 90   XYZ
    dof rx
    limits (-10.0 170.0)
  end
  begin
     id 27 
     name rwrist
     direction -1 -4.48964e-011 1.58672e-027   
     length 1.6033   
     axis -1.65735e-015 -90 -90   XYZ
    dof ry
    limits (-180.0 0.0)
  end
  begin
     id 28
     name rhand
     direction -1 -4.49006e-011 3.17344e-027   
     length 0.691885   
     axis -2.02492e-015 -90 -90   XYZ
    dof rx rz
    limits (-90.0 90.0)
           (-45.0 45.0)
  end
  begin
     id 29
     name rfingers
     direction -1 -4.48908e-011 6.34687e-027   
     length 0.557815   
     axis -4.04985e-015 -90 -90   XYZ
    dof rx
    limits (0.0 90.0)
  end
  begin
     id 30
     name rthumb
     direction -0.707107 -6.34999e-011 0.707107   
     length 0.800915   
     axis -90 -45 -2.85299e-015   XYZ
    dof rx rz
    limits (-45.0 45.0)
           (-45.0 45.0)
  end
:hierarchy
  begin
    root lhipjoint rhipjoint lowerback
    lhipjoint lfemur
    lfemur ltibia
    ltibia lfoot
    lfoot ltoes
    rhipjoint rfemur
    rfemur rtibia
    rtibia rfoot
    rfoot rtoes
    lowerback upperback
    upperback thorax
    thorax lowerneck lclavicle rclavicle
    lowerneck upperneck
    upperneck head
    lclavicle lhumerus
    lhumerus lradius
    lradius lwrist
    lwrist lhand lthumb
    lhand lfingers
    rclavicle rhumerus
    rhumerus rradius
    rradius rwrist
    rwrist rhand rthumb
    rhand rfingers
  end

#!OML:ASF I:\Actors\actors\Patient Classification 1\Patient 1\Session 1\Subject1.ASF
:FULLY-SPECIFIED
:DEGREES
34
root -0.427787 17.5239 7.83808 8.39595 -4.23264 -6.17818
lowerback -0.326871 0.736384 3.56902
upperback -9.91084 1.29528 1.45154
thorax -10.2964 0.396926 -0.550509
lowerneck -2.31149 -12.0004 -11.0591
upperneck 18.129 -17.4448 9.27932
head 7.75432 -8.52564 3.27553
rclavicle -1.75427e-014 2.56432e-014
rhumerus -44.114 5.63624 -93.4189
rradius 32.4619
rwrist 25.0983
rhand 13.5144 -23.5264
rfingers 7.12502
rthumb 38.4515 -49.2013
lclavicle -1.75427e-014 2.56432e-014
lhumerus -44.9868 1.73449 88.7376
lradius 24.6027
lwrist -21.176
lhand -10.9169 -8.21346
lfingers 7.12502
lthumb 15.1005 21.2157
rfemur -2.5845 24.0993 23.0456
rtibia 1.92914
rfoot -11.6948 -18.3787
rtoes 1.44182
lfemur 7.04428 -41.1203 -17.6666
ltibia -3.94817
lfoot -18.0891 49.6656
ltoes 6.48004
35
root -0.420088 17.5263 7.837 8.43865 -4.59374 -6.14153
lowerback -0.246131 0.675298 3.56458
upperback -9.88295 1.22245 1.55031
thorax -10.3184 0.366074 -0.437348
lowerneck -2.70444 -11.6716 -10.6363
upperneck 17.9783 -16.8758 8.85304
head 7.63347 -8.24631 3.12771
rclavicle 5.91384e-015 -1.39149e-015
rhumerus -44.1621 6.17957 -93.6681
rradius 32.9378
rwrist 24.5629
rhand 13.4851 -23.5422
rfingers 7.12502
rthumb 38.4238 -49.2249
lclavicle 5.91384e-015 -1.39149e-015
lhumerus -45.4971 -0.244807 90.3772
lradius 25.6781
lwrist -19.7424
lhand -10.0815 -8.13947
lfingers 7.12502
lthumb 15.9051 21.2274
rfemur -2.73365 24.1641 22.8842
rtibia 2.00424
rfoot -11.7001 -18.034
rtoes 1.53307
lfemur 6.9701 -40.7873 -17.7181
ltibia -3.87517
lfoot -18.3179 49.6311
ltoes 6.77331
36
root -0.412139 17.5282 7.83505 8.47823 -5.02489 -6.11276
lowerback -0.149902 0.596977 3.55796
upperback -9.85368 1.12797 1.66452
thorax -10.349 0.325394 -0.304533
lowerneck -3.10292 -11.2625 -10.1349
upperneck 17.7936 -16.1939 8.37767
head 7.48561 -7.91256 2.96543
rclavicle 8.22472e-015 -2.18663e-014
rhumerus -44.1609 6.69414 -93.9267
rradius 33.4274
rwrist 24.0347
rhand 13.4561 -23.6126
rfingers 7.12502
rthumb 38.3965 -49.3028
lclavicle 8.22472e-015 -2.18663e-014
lhumerus -46.0287 -2.16162 92.0708
lradius 26.8894
lwrist -17.9016
lhand -9.49691 -8.21584
lfingers 7.12502
lthumb 16.4681 21.1052
rfemur -2.8815 24.2572 22.7341
rtibia 2.07108
rfoot -11.6779 -17.6841
rtoes 1.50262
lfemur 6.90274 -40.3534 -17.7549
ltibia -3.81801
lfoot -18.5026 49.5456
ltoes 7.05634
37
root -0.404081 17.5296 7.83216 8.51889 -5.52054 -6.09558
lowerback -0.0419063 0.505701 3.55252
upperback -9.82803 1.01707 1.78501
thorax -10.3911 0.276629 -0.163931
lowerneck -3.49173 -10.7781 -9.55433
upperneck 17.581 -15.4139 7.86912
head 7.3162 -7.53053 2.79123
rclavicle 7.95139e-016 2.14687e-014
rhumerus -44.1095 7.12423 -94.1769
rradius 33.8992
rwrist 23.4929
rhand 13.4277 -23.7074
rfingers 7.12502
rthumb 38.3696 -49.4051
lclavicle 7.95139e-016 2.14687e-014
lhumerus -46.536 -3.87813 93.6954
lradius 28.1718
lwrist -15.7859
lhand -9.26934 -8.49778
lfingers 7.12502
lthumb 16.6872 20.805
rfemur -3.03429 24.3616 22.5965
rtibia 2.12876
rfoot -11.6194 -17.316
rtoes 1.32047
lfemur 6.83907 -39.8367 -17.7707
ltibia -3.77611
lfoot -18.6416 49.429
ltoes 7.31501
38
root -0.395756 17.5304 7.82849 8.56916 -6.07278 -6.08473
lowerback 0.0694885 0.406653 3.547
upperback -9.81191 0.895444 1.89939
thorax -10.4458 0.222014 -0.028296
lowerneck -3.86369 -10.2258 -8.90439
upperneck 17.3584 -14.5529 7.34355
head 7.13661 -7.10764 2.60821
rclavicle -1.39149e-015 1.99779e-014
rhumerus -44.0012 7.40963 -94.3956
rradius 34.3021
rwrist 22.8991
rhand 13.3802 -23.7627
rfingers 7.12502
rthumb 38.3248 -49.4728
lclavicle -1.39149e-015 1.99779e-014
lhumerus -46.976 -5.32393 95.1663
lradius 29.4667
lwrist -13.5961
lhand -9.39048 -9.01164
lfingers 7.12502
lthumb 16.5705 20.3009
rfemur -3.20257 24.4678 22.4587
rtibia 2.17473
rfoot -11.5197 -16.9258
rtoes 0.996607
lfemur 6.76986 -39.2766 -17.7733
ltibia -3.7401
lfoot -18.7833 49.3109
ltoes 7.60106
39
root -0.386785 17.5307 7.82444 8.63269 -6.67406 -6.07212
lowerback 0.180528 0.302797 3.53574
upperback -9.81037 0.766189 2.00068
thorax -10.5164 0.16315 0.097965
lowerneck -4.20925 -9.61748 -8.1737
upperneck 17.1377 -13.6288 6.78592
head 6.95135 -6.65273 2.4069
rclavicle -6.23687e-015 5.76476e-015
rhumerus -43.8205 7.47972 -94.5414
rradius 34.5532
rwrist 22.196
rhand 13.2961 -23.6931
rfingers 7.12502
rthumb 38.2455 -49.4251
lclavicle -6.23687e-015 5.76476e-015
lhumerus -47.3112 -6.46513 96.434
lradius 30.7155
lwrist -11.5439
lhand -9.79577 -9.73945
lfingers 7.12502
lthumb 16.1803 19.6052
rfemur -3.39103 24.5725 22.3077
rtibia 2.20851
rfoot -11.3799 -16.5168
rtoes 0.532632
lfemur 6.69661 -38.7198 -17.7848
ltibia -3.69778
lfoot -19.005 49.222
ltoes 8.0014
